<?xml version="1.0" encoding="UTF-8" standalone="no"?>
<!-- Created with Inkscape (http://www.inkscape.org/) -->

<svg
   xmlns:dc="http://purl.org/dc/elements/1.1/"
   xmlns:cc="http://creativecommons.org/ns#"
   xmlns:rdf="http://www.w3.org/1999/02/22-rdf-syntax-ns#"
   xmlns:svg="http://www.w3.org/2000/svg"
   xmlns="http://www.w3.org/2000/svg"
   xmlns:sodipodi="http://sodipodi.sourceforge.net/DTD/sodipodi-0.dtd"
   xmlns:inkscape="http://www.inkscape.org/namespaces/inkscape"
   width="260.56396"
   height="38.359337"
   viewBox="0 0 68.940881 10.149242"
   version="1.1"
   id="svg4639"
   inkscape:version="0.92+devel unknown"
   sodipodi:docname="hawkular-alerting.svg">
  <defs
     id="defs4633" />
  <sodipodi:namedview
     id="base"
     pagecolor="#ffffff"
     bordercolor="#666666"
     borderopacity="1.0"
     inkscape:pageopacity="0.0"
     inkscape:pageshadow="2"
     inkscape:zoom="4.64"
     inkscape:cx="68.324068"
     inkscape:cy="-35.947987"
     inkscape:document-units="mm"
     inkscape:current-layer="layer1"
     inkscape:document-rotation="0"
     showgrid="false"
     units="px"
     fit-margin-top="0"
     fit-margin-left="0"
     fit-margin-right="0"
     fit-margin-bottom="0"
     inkscape:window-width="2560"
     inkscape:window-height="1380"
     inkscape:window-x="0"
     inkscape:window-y="31"
     inkscape:window-maximized="1"
     inkscape:pagecheckerboard="true" />
  <metadata
     id="metadata4636">
    <rdf:RDF>
      <cc:Work
         rdf:about="">
        <dc:format>image/svg+xml</dc:format>
        <dc:type
           rdf:resource="http://purl.org/dc/dcmitype/StillImage" />
        <dc:title></dc:title>
      </cc:Work>
    </rdf:RDF>
  </metadata>
  <g
     inkscape:label="Layer 1"
     inkscape:groupmode="layer"
     id="layer1"
     transform="translate(-0.39387904,-286.82229)">
    <g
       id="g4544"
       transform="matrix(0.0555781,0,0,0.0555781,0.28140233,284.72092)"
       inkscape:export-xdpi="96"
       inkscape:export-ydpi="96"
       inkscape:export-filename="/home/lponce/git/hawkular-alerts/ui/src/main/ui/hawkular.png">
      <g
         id="Layer_1-3">
        <g
           id="g4511">
          <path
             id="path4475"
             d="m 235.63,170.864 c -1.682,20.12 -19.579,36.583 -39.77,36.583 H 58.184 c -20.19,0 -38.087,-16.462 -39.771,-36.583 L 11.116,83.641 C 9.433,63.52 24.575,47.058 44.766,47.058 h 164.512 c 20.191,0 35.333,16.462 33.651,36.583 z"
             fill="#CC0000"
             inkscape:connector-curvature="0" />
          <g
             id="g4479">
            <path
               id="path4477"
               d="m 126.91,172.206 c -39.412,-2.828 -21.189,-16.7 -38.759,-18.52 -18.638,-1.927 -22.612,-0.343 -28.67,0 -6.062,0.34 -3.732,-1.978 -3.732,-1.978 0,0 12.606,-5.945 25.176,-15.85 8.19,-6.448 16.192,-13.05 19.579,-25.641 7.92,-29.394 15.234,-38.646 26.519,-37.707 11.285,-0.938 18.592,8.317 26.515,37.707 3.393,12.59 11.391,19.193 19.584,25.641 12.565,9.905 25.171,15.85 25.171,15.85 0,0 2.332,2.318 -3.731,1.978 -6.061,-0.343 -10.245,-3.408 -28.672,0 -18.914,3.495 0.655,15.691 -38.76,18.52 l -0.107,0.011 z"
               fill="#FFDE17"
               inkscape:connector-curvature="0" />
          </g>
          <path
             id="path4481"
             d="m 36.29,110.774 c 0,0 -9.37,-15.825 -1.838,-26.31 2.451,-3.412 12.586,-4.106 19.8,-2.712 4.721,0.91 9.921,2.358 16.477,7.777 1.202,0.99 1.227,4.635 1.662,2.886 1.167,-4.66 -10.339,-11.683 -15.122,-13.2 -14.889,-4.719 -25.497,3.379 -25.744,4.46 -0.458,1.973 -1.235,11.976 -0.568,16.695 0.41,2.895 5.333,10.404 5.333,10.404 z"
             fill="#414042"
             inkscape:connector-curvature="0" />
          <path
             id="path4483"
             d="m 159.528,146.47 c -1.541,3.696 -3.833,7.991 -6.246,12.25 -1.538,4.739 -4.755,12.986 -9.684,18.188 -0.788,0.82 -1.47,1.726 -2.104,2.718 -1.369,2.978 -2.465,5.819 -3.371,8.522 -6.912,20.411 -2.999,30.22 -11.498,36.632 -8.818,-6.412 -4.602,-16.15 -11.446,-36.461 -0.942,-2.788 -2.088,-5.73 -3.509,-8.81 -0.017,-0.018 -0.033,-0.052 -0.033,-0.068 -0.599,-0.907 -1.25,-1.763 -1.985,-2.532 -4.945,-5.218 -8.177,-13.534 -9.735,-18.257 -2.379,-4.227 -4.639,-8.467 -6.159,-12.13 -2.859,-4.072 -5.151,-8.144 -1.576,-10.283 8.283,-4.979 17.847,-27.033 23.868,-38.138 1.695,-3.13 3.098,-5.391 4.124,-6.159 2.018,-1.522 4.089,-2.275 6.039,-2.531 0.138,0.016 0.273,0.034 0.412,0.068 0.136,-0.034 0.257,-0.052 0.394,-0.068 1.969,0.256 4.037,1.009 6.057,2.531 1.01,0.769 2.429,3.029 4.124,6.159 6.004,11.104 15.586,33.159 23.866,38.138 3.559,2.139 1.304,6.157 -1.538,10.231 z"
             fill="#414042"
             inkscape:connector-curvature="0" />
          <path
             id="path4485"
             d="m 81.522,99.208 c 0,0 -2.995,3.939 -3.267,5.168 -0.272,1.232 -15.448,32.456 -44.031,8.921 0,0 -9.275,-11.422 -5.428,-26.062 0.317,-1.209 -0.389,-4.021 0.528,-4.948 13.065,-13.198 43.997,-5.168 49.61,8.214 0.886,2.107 2.588,8.707 2.588,8.707 z"
             fill="#FFDE17"
             inkscape:connector-curvature="0" />
          <path
             id="path4487"
             d="m 35.756,111.358 c 0,0 -10.942,-16.705 -2.144,-27.779 2.858,-3.597 14.696,-4.331 23.12,-2.861 5.514,0.963 11.587,2.491 19.243,8.214 1.401,1.047 1.429,4.893 1.939,3.045 1.361,-4.923 -12.073,-12.335 -17.66,-13.936 -17.388,-4.984 -29.773,3.569 -30.065,4.708 -0.534,2.083 -1.439,12.646 -0.66,17.626 0.48,3.057 6.227,10.983 6.227,10.983 z"
             fill="#414042"
             inkscape:connector-curvature="0" />
          <ellipse
             id="ellipse4489"
             ry="12.859"
             rx="12.521"
             cy="96.07"
             cx="58.111"
             fill="#414042" />
          <path
             id="path4491"
             d="m 32.285,95.393 c 1.328,-28.486 36.62,-4.023 35.626,-3.415 -5.785,3.537 -15.414,3.138 -18.579,1.292 -3.165,-1.845 -7.35,-3.044 -10.514,-1.568 -3.164,1.477 -6.631,5.799 -6.533,3.691 z"
             fill="#F1F2F2"
             opacity="0.8"
             inkscape:connector-curvature="0" />
          <path
             id="path4493"
             d="m 171.729,99.208 c 0,0 2.994,3.939 3.268,5.168 0.272,1.232 15.447,32.456 44.031,8.921 0,0 9.273,-11.422 5.427,-26.062 -0.316,-1.209 0.389,-4.021 -0.527,-4.948 -13.065,-13.198 -43.997,-5.168 -49.611,8.214 -0.885,2.107 -2.588,8.707 -2.588,8.707 z"
             fill="#FFDE17"
             inkscape:connector-curvature="0" />
          <path
             id="path4495"
             d="m 217.495,111.358 c 0,0 10.942,-16.705 2.145,-27.779 -2.86,-3.597 -14.698,-4.331 -23.122,-2.861 -5.512,0.963 -11.586,2.491 -19.242,8.214 -1.402,1.047 -1.43,4.893 -1.939,3.045 -1.362,-4.923 12.073,-12.335 17.658,-13.936 17.389,-4.984 29.775,3.569 30.066,4.708 0.534,2.083 1.44,12.646 0.66,17.626 -0.478,3.057 -6.226,10.983 -6.226,10.983 z"
             fill="#414042"
             inkscape:connector-curvature="0" />
          <ellipse
             id="ellipse4497"
             ry="12.859"
             rx="12.523"
             cy="96.07"
             cx="195.14"
             fill="#414042" />
          <path
             id="path4499"
             d="m 220.967,95.393 c -1.327,-28.486 -36.62,-4.023 -35.626,-3.415 5.784,3.537 15.414,3.138 18.577,1.292 3.166,-1.845 7.351,-3.044 10.516,-1.568 3.164,1.477 6.63,5.799 6.533,3.691 z"
             fill="#F1F2F2"
             opacity="0.9"
             inkscape:connector-curvature="0" />
          <path
             id="path4501"
             d="m 51.922,112.767 c -1.877,3.04 -9.256,0 -12.12,-3.877 -2.122,-2.875 -2.782,-4.093 -0.906,-7.134 1.879,-3.039 3.81,-3.82 6.848,-1.943 3.04,1.879 8.057,9.912 6.178,12.954 z"
             fill="#F1F2F2"
             opacity="0.8"
             inkscape:connector-curvature="0" />
          <circle
             id="circle4503"
             r="46.159"
             cy="94.734001"
             cx="198.295"
             fill="#00FDFF"
             opacity="0.5" />
          <path
             id="path4505"
             d="m 243.338,87.317 c 3.218,24.114 -13.725,46.265 -37.834,49.482 -24.116,3.218 -46.27,-13.719 -49.485,-37.833 -3.217,-24.111 13.721,-46.267 37.836,-49.486 24.11,-3.216 46.266,13.726 49.483,37.837 z"
             fill="#FFFFFF"
             opacity="0.5"
             inkscape:connector-curvature="0" />
          <path
             id="path4507"
             d="m 251.77,122.116 c -0.407,-3.057 -2.556,-5.463 -5.314,-6.354 3.733,-8.512 5.258,-18.113 3.942,-27.978 -3.833,-28.73 -30.322,-48.982 -59.051,-45.151 -28.728,3.832 -48.985,30.322 -45.153,59.052 3.833,28.726 30.327,48.985 59.053,45.151 13.5,-1.801 25.127,-8.606 33.265,-18.296 1.655,1.703 4.065,2.629 6.591,2.292 4.241,-0.565 7.233,-4.474 6.667,-8.716 z m -47.37,18.373 c -25.228,3.366 -48.494,-14.42 -51.859,-39.65 -3.366,-25.228 14.423,-48.496 39.652,-51.861 25.227,-3.365 48.491,14.425 51.855,39.653 1.451,10.875 -1.028,21.384 -6.339,30.092 -0.15,0.217 -0.29,0.441 -0.418,0.673 -7.062,11.146 -18.819,19.217 -32.891,21.093 z m 40.233,-13.184 c -1.544,0.206 -3.004,-0.458 -3.889,-1.613 1.542,-2.114 2.928,-4.343 4.144,-6.668 1.718,0.338 3.109,1.734 3.354,3.562 0.307,2.299 -1.311,4.412 -3.609,4.719 z"
             fill="#414042"
             inkscape:connector-curvature="0" />
          <path
             id="path4509"
             d="m 204.475,52.192 c -5.17,2.907 12.99,7.282 22.432,20.531 9.441,13.25 9.379,26.968 11.243,25.606 2.725,-1.994 4.846,-16.753 -4.595,-30.002 -9.442,-13.25 -26.245,-17.728 -29.08,-16.135 z"
             fill="#FFFFFF"
             opacity="0.8"
             inkscape:connector-curvature="0" />
        </g>
      </g>
      <g
         display="none"
         id="Guides" />
    </g>
    <text
       xml:space="preserve"
       style="font-style:normal;font-weight:normal;font-size:10.58333302px;font-family:sans-serif;fill:#ffffff;fill-opacity:1;stroke:none;stroke-width:0.26458332"
       x="18.246578"
       y="295.34784"
       id="text4721"
       inkscape:export-xdpi="96"
       inkscape:export-ydpi="96"
       inkscape:export-filename="/home/lponce/git/hawkular-alerts/ui/src/main/ui/hawkular.png"><tspan
         sodipodi:role="line"
         id="tspan4719"
         x="18.246578"
         y="295.34784"
         style="font-style:normal;font-variant:normal;font-weight:bold;font-stretch:normal;font-size:9.87777805px;font-family:'Expletus Sans';-inkscape-font-specification:'Expletus Sans Bold';fill:#ffffff;fill-opacity:1;stroke-width:0.26458332">ALERTING</tspan></text>
  </g>
</svg>
